<?xml version="1.0" encoding="UTF-8"?>
<svg width="14px" height="8px" viewBox="0 0 14 8" version="1.1" xmlns="http://www.w3.org/2000/svg" xmlns:xlink="http://www.w3.org/1999/xlink">
    <!-- Generator: Sketch 57.1 (83088) - https://sketch.com -->
    <title>Path</title>
    <desc>Created with Sketch.</desc>
    <g id="Talent-Request-2" stroke="none" stroke-width="1" fill="none" fill-rule="evenodd">
        <g id="2---Position-Request-7-Copy" transform="translate(-840.000000, -387.000000)" fill="#000000" fill-rule="nonzero" stroke="#000000">
            <g id="Group-5" transform="translate(574.000000, 371.000000)">
                <g id="e604" transform="translate(267.000000, 17.000000)">
                    <path d="M0,0.375000376 C0,0.272059185 0.0394867021,0.183823825 0.118460106,0.110294295 C0.197433511,0.0367647649 0.292201515,0 0.402764119,0 C0.513326723,0 0.608094727,0.0367647649 0.687068132,0.110294295 L6.04146542,5.09559687 L11.3129319,0.187508471 C11.3919053,0.113978941 11.4866733,0.0772141758 11.5972359,0.0772141758 C11.7077985,0.0772141758 11.8025665,0.113978941 11.8815399,0.187508471 C11.9605133,0.261038 12,0.349273361 12,0.452214552 C12,0.555155743 11.9605133,0.643391104 11.8815399,0.716920634 L6.32577955,5.88970571 C6.24680614,5.96323524 6.15203814,6 6.04147553,6 C5.93091293,6 5.83614492,5.96323524 5.75717152,5.88970571 L0.118480324,0.650737055 C0.102685643,0.636031149 0.0888653172,0.619487011 0.077019347,0.601104641 C0.0651733498,0.582722271 0.055301681,0.564339951 0.0474043406,0.545957682 C0.0395070002,0.527575312 0.0316096597,0.509192992 0.0237123193,0.490810722 C0.0158149789,0.472428353 0.00989198031,0.454046033 0.00594332358,0.435663763 C0.00199466684,0.417281393 0,0.397060766 0,0.375001882 L0,0.375000376 Z" id="Path"></path>
                </g>
            </g>
        </g>
    </g>
</svg>