<?xml version="1.0" encoding="UTF-8"?>
<svg width="160px" height="160px" viewBox="0 0 160 160" version="1.1" xmlns="http://www.w3.org/2000/svg" xmlns:xlink="http://www.w3.org/1999/xlink">
    <!-- Generator: Sketch 57.1 (83088) - https://sketch.com -->
    <title>Shape</title>
    <desc>Created with Sketch.</desc>
    <g id="Talent-Request-2" stroke="none" stroke-width="1" fill="none" fill-rule="evenodd">
        <g id="2---Position-Request-17-Copy" transform="translate(-640.000000, -123.000000)" fill="#5AC775" fill-rule="nonzero">
            <g id="e017" transform="translate(640.000000, 123.000000)">
                <path d="M159.135829,67.0499448 L143.113324,43.1484604 L151.046789,15.1852776 C151.565315,13.3106497 151.124568,11.6703503 149.724547,10.2643793 C148.324522,8.85840841 146.69116,8.41578892 144.824461,8.93652087 L117.135121,17.0599179 L93.0235757,0.969359415 C91.4679941,-0.176247312 89.8087066,-0.306429766 88.0457132,0.578812055 C86.2827198,1.46405103 85.3493701,2.89605766 85.2456642,4.87483195 L84.4678752,33.9315572 L61.6008225,51.8967294 C60.9785906,52.4174578 60.4859902,53.0944058 60.1230213,53.9275733 C59.7600523,54.7607409 59.6822733,55.6459816 59.889684,56.5832956 C59.889684,56.8957333 59.9674631,57.2342082 60.1230213,57.5987202 C60.2785794,57.9632308 60.4341376,58.2756682 60.5896957,58.5360324 C60.7452539,58.7963973 60.9526657,59.0567615 61.2119312,59.317125 C61.4711949,59.5774899 61.7563853,59.8118184 62.0675023,60.0201104 C62.3786186,60.2284025 62.6897346,60.3846214 63.0008502,60.4887671 L84.467889,68.1435107 C84.1567727,68.3518027 84.0012145,68.5080216 84.0012145,68.6121673 L1.40002397,151.40796 C0.777792037,152.032835 0.36297016,152.787894 0.155558337,153.673136 C-0.0518527789,154.558375 -0.0518527789,155.417578 0.155558337,156.250746 C0.362969452,157.083914 0.777791329,157.865008 1.40002397,158.594029 C2.43707954,159.531343 3.62969222,160 4.97786199,160 C6.32603176,160 7.51864444,159.531343 8.55570002,158.594029 L91.0013158,75.6420006 C91.3124321,75.3295628 91.5716951,74.9650523 91.7791048,74.5484688 L100.179241,97.6688819 C100.905179,99.4393634 102.201498,100.480824 104.068197,100.793263 C104.379313,100.897409 104.638576,100.949482 104.845986,100.949482 C106.505273,100.949482 107.853445,100.272534 108.890501,98.9186381 L126.468594,75.9544605 L155.091277,74.8609288 C156.024627,74.8609288 156.880196,74.6266003 157.657985,74.1579433 C158.435778,73.6892864 159.032084,73.0383741 159.446904,72.2052065 C160.276548,70.434725 160.172842,68.7163167 159.135788,67.0499816 L159.135829,67.0499448 Z M123.82412,66.1126326 C122.268538,66.1126326 121.024073,66.7375074 120.090723,67.987257 L106.401628,85.6400113 L98.7792591,64.706683 C98.2607331,63.2486407 97.2755305,62.2592535 95.8236513,61.7385216 L74.9788586,54.083778 L92.4013774,40.3365399 C92.8162011,40.0241022 93.1532444,39.6856273 93.4125074,39.3211153 C93.6717711,38.9566047 93.879183,38.5400209 94.0347429,38.071364 C94.190301,37.602707 94.2680801,37.1080143 94.2680801,36.5872859 L95.0458691,14.2479974 L113.401731,26.7455108 C114.7499,27.5786783 116.149925,27.7869711 117.601804,27.3703891 L138.913268,21.1216058 L132.846488,42.5235874 C132.742783,42.8360252 132.69093,43.1484626 132.69093,43.4608996 C132.69093,43.7733374 132.69093,44.059739 132.69093,44.3201047 C132.69093,44.5804696 132.716856,44.8668712 132.768709,45.1793097 C132.820561,45.4917474 132.924267,45.7781491 133.079825,46.0385147 C133.235384,46.2988796 133.365015,46.5332081 133.468721,46.7415002 L146.068952,65.1753258 L123.82412,66.1126326 Z" id="Shape"></path>
            </g>
        </g>
    </g>
</svg>