<?xml version="1.0" encoding="UTF-8"?>
<svg width="205px" height="43px" viewBox="0 0 205 43" version="1.1" xmlns="http://www.w3.org/2000/svg" xmlns:xlink="http://www.w3.org/1999/xlink">
    <!-- Generator: Sketch 57.1 (83088) - https://sketch.com -->
    <title>Group 2</title>
    <desc>Created with Sketch.</desc>
    <g id="Talent-Request-2" stroke="none" stroke-width="1" fill="none" fill-rule="evenodd">
        <g id="2---Position-Request-17-Copy" transform="translate(-144.000000, -869.000000)" fill-rule="nonzero">
            <g id="Footer" transform="translate(0.000000, 840.000000)">
                <g id="Content" transform="translate(141.000000, 26.000000)">
                    <g id="Group-2">
                        <g id="Group">
                            <g id="Group-3">
                                <g id="Group-4" transform="translate(51.092118, 17.574549)">
                                    <g id="Blue-Trail-Software" transform="translate(1.299145, 1.041785)">
                                        <path d="M7.81006648,6.42735043 C8.41785679,6.61981736 8.89395206,6.94143491 9.23836657,7.39221273 C9.58278108,7.84299054 9.75498575,8.39759088 9.75498575,9.05603039 C9.75498575,9.98797554 9.39284946,10.7046509 8.668566,11.2060779 C7.94428255,11.7075049 6.88826272,11.9582146 5.50047483,11.9582146 L-5.82645043e-13,11.9582146 L-5.82645043e-13,1.32193732 L5.1965812,1.32193732 C6.49320053,1.32193732 7.48844224,1.57011464 8.18233618,2.06647673 C8.87623012,2.56283882 9.22317189,3.23646298 9.22317189,4.08736942 C9.22317189,4.60399119 9.09908323,5.06489193 8.85090218,5.47008547 C8.60272114,5.87527901 8.25577937,6.19436414 7.81006648,6.42735043 Z M2.44634378,3.17568851 L2.44634378,5.68281102 L4.89268756,5.68281102 C5.50047787,5.68281102 5.96137861,5.57644931 6.27540361,5.3637227 C6.5894286,5.15099609 6.74643875,4.8369758 6.74643875,4.42165242 C6.74643875,4.00632904 6.5894286,3.69484118 6.27540361,3.48717949 C5.96137861,3.2795178 5.50047787,3.17568851 4.89268756,3.17568851 L2.44634378,3.17568851 Z M5.31813865,10.1044634 C5.96644832,10.1044634 6.4552057,9.99810173 6.78442545,9.78537512 C7.1136452,9.57264851 7.27825261,9.24343369 7.27825261,8.7977208 C7.27825261,7.91642484 6.62488783,7.47578348 5.31813865,7.47578348 L2.44634378,7.47578348 L2.44634378,10.1044634 L5.31813865,10.1044634 Z M11.8366572,0.683760684 L14.2070275,0.683760684 L14.2070275,11.9582146 L11.8366572,11.9582146 L11.8366572,0.683760684 Z M25.025641,3.78347578 L25.025641,11.9582146 L22.7768281,11.9582146 L22.7768281,10.985755 C22.4628031,11.3402993 22.0880047,11.6112685 21.6524217,11.7986705 C21.2168386,11.9860725 20.7458082,12.0797721 20.2393162,12.0797721 C19.1655534,12.0797721 18.3146597,11.7708166 17.6866097,11.1528965 C17.0585597,10.5349763 16.7445394,9.6182397 16.7445394,8.40265907 L16.7445394,3.78347578 L19.1149098,3.78347578 L19.1149098,8.05318139 C19.1149098,9.3700604 19.6669777,10.02849 20.7711301,10.02849 C21.3384011,10.02849 21.794237,9.84362325 22.1386515,9.47388414 C22.483066,9.10414503 22.6552707,8.55460953 22.6552707,7.82526116 L22.6552707,3.78347578 L25.025641,3.78347578 Z M35.6163343,7.90123457 C35.6163343,7.93162408 35.6011398,8.1443475 35.5707502,8.53941121 L29.3865147,8.53941121 C29.4979429,9.04590313 29.7613148,9.44602575 30.1766382,9.73979107 C30.5919616,10.0335564 31.1085756,10.1804368 31.7264957,10.1804368 C32.1519489,10.1804368 32.5292798,10.1171263 32.8584995,9.99050332 C33.1877193,9.86388034 33.4941423,9.66381903 33.7777778,9.39031339 L35.0389364,10.7578348 C34.2690686,11.6391307 33.1446734,12.0797721 31.665717,12.0797721 C30.7439017,12.0797721 29.9284619,11.8999701 29.2193732,11.5403609 C28.5102845,11.1807516 27.9632814,10.6818645 27.5783476,10.0436847 C27.1934137,9.40550488 27.0009497,8.68123229 27.0009497,7.8708452 C27.0009497,7.07058796 27.1908813,6.34884779 27.5707502,5.70560304 C27.9506192,5.06235829 28.472298,4.5609388 29.1358025,4.20132953 C29.7993069,3.84172027 30.5413064,3.66191833 31.3618234,3.66191833 C32.1620806,3.66191833 32.8863532,3.834123 33.5346629,4.17853751 C34.1829725,4.52295202 34.6919893,5.01677425 35.0617284,5.66001899 C35.4314675,6.30326374 35.6163343,7.05032813 35.6163343,7.90123457 Z M31.377018,5.45489079 C30.8401366,5.45489079 30.3893655,5.60683609 30.0246914,5.91073124 C29.6600172,6.2146264 29.4371641,6.62994355 29.3561254,7.15669516 L33.382716,7.15669516 C33.3016773,6.64007339 33.0788242,6.22728866 32.71415,5.91832858 C32.3494759,5.60936851 31.9037696,5.45489079 31.377018,5.45489079 Z M44.6267806,3.32763533 L41.2231719,3.32763533 L41.2231719,1.32193732 L50.4919278,1.32193732 L50.4919278,3.32763533 L47.0883191,3.32763533 L47.0883191,11.9582146 L44.6267806,11.9582146 L44.6267806,3.32763533 Z M54.1082621,4.8622982 C54.3918976,4.46723449 54.7742933,4.16840874 55.2554606,3.96581197 C55.7366279,3.76321519 56.2912283,3.66191833 56.9192783,3.66191833 L56.9192783,5.84995252 C56.6559025,5.82969284 56.4786329,5.81956315 56.3874644,5.81956315 C55.7087652,5.81956315 55.1769567,6.00949478 54.7920228,6.38936372 C54.4070889,6.76923267 54.2146249,7.33902754 54.2146249,8.09876543 L54.2146249,11.9582146 L51.8442545,11.9582146 L51.8442545,3.78347578 L54.1082621,3.78347578 L54.1082621,4.8622982 Z M61.9639126,3.66191833 C63.2301425,3.66191833 64.2025924,3.96327651 64.8812915,4.5660019 C65.5599907,5.16872729 65.8993352,6.07786667 65.8993352,7.29344729 L65.8993352,11.9582146 L63.6809117,11.9582146 L63.6809117,10.9401709 C63.2351988,11.6999088 62.4045645,12.0797721 61.1889839,12.0797721 C60.5609339,12.0797721 60.0164632,11.9734104 59.5555556,11.7606838 C59.0946479,11.5479572 58.7426413,11.2541962 58.4995252,10.8793922 C58.256409,10.5045882 58.1348528,10.0791413 58.1348528,9.60303894 C58.1348528,8.84330104 58.4210164,8.24564953 58.9933523,7.81006648 C59.5656882,7.37448342 60.4495034,7.15669516 61.6448243,7.15669516 L63.5289649,7.15669516 C63.5289649,6.64007339 63.3719547,6.24248319 63.0579297,5.96391263 C62.7439047,5.68534207 62.2728743,5.54605888 61.6448243,5.54605888 C61.2092413,5.54605888 60.781262,5.61443426 60.3608737,5.75118708 C59.9404854,5.88793991 59.5834139,6.07280669 59.2896486,6.30579297 L58.4387464,4.64957265 C58.8844593,4.33554765 59.4188003,4.09243518 60.0417854,3.92022792 C60.6647704,3.74802066 61.3054731,3.66191833 61.9639126,3.66191833 Z M61.7815764,10.4843305 C62.18677,10.4843305 62.5463739,10.3906309 62.8603989,10.2032289 C63.1744239,10.0158269 63.397277,9.7397929 63.5289649,9.37511871 L63.5289649,8.53941121 L61.9031339,8.53941121 C60.9306694,8.53941121 60.4444444,8.85849633 60.4444444,9.49667616 C60.4444444,9.80057132 60.5634683,10.0411514 60.8015195,10.2184236 C61.0395707,10.3956957 61.3662531,10.4843305 61.7815764,10.4843305 Z M68.4216524,3.78347578 L70.7920228,3.78347578 L70.7920228,11.9582146 L68.4216524,11.9582146 L68.4216524,3.78347578 Z M69.6068376,2.64387464 C69.1712545,2.64387464 68.8167155,2.51725356 68.5432099,2.2640076 C68.2697042,2.01076163 68.1329535,1.69674135 68.1329535,1.32193732 C68.1329535,0.947133295 68.2697042,0.63311301 68.5432099,0.379867047 C68.8167155,0.126621083 69.1712545,-5.80868686e-13 69.6068376,-5.80868686e-13 C70.0424207,-5.80868686e-13 70.3969597,0.121556239 70.6704653,0.364672365 C70.943971,0.60778849 71.0807217,0.911679088 71.0807217,1.27635328 C71.0807217,1.67141698 70.943971,1.99809937 70.6704653,2.25641026 C70.3969597,2.51472114 70.0424207,2.64387464 69.6068376,2.64387464 Z M73.3751187,0.683760684 L75.7454891,0.683760684 L75.7454891,11.9582146 L73.3751187,11.9582146 L73.3751187,0.683760684 Z" id="BlueTrail" fill="#FFFFFF"></path>
                                        <path d="M86.6704653,12.1405508 C85.8296887,12.1405508 85.0167814,12.0265918 84.2317189,11.7986705 C83.4466564,11.5707491 82.8160834,11.2744558 82.339981,10.9097816 L83.1756885,9.05603039 C83.6315312,9.39031506 84.1734695,9.65875176 84.8015195,9.86134853 C85.4295695,10.0639453 86.05761,10.1652422 86.68566,10.1652422 C87.3846189,10.1652422 87.9012329,10.0614129 88.2355176,9.85375119 C88.5698022,9.6460895 88.7369421,9.37005554 88.7369421,9.02564103 C88.7369421,8.77239506 88.6381776,8.56220406 88.4406458,8.39506173 C88.2431139,8.22791939 87.9898718,8.09370104 87.6809117,7.99240266 C87.3719516,7.89110427 86.954102,7.77967772 86.4273504,7.65811966 C85.6169633,7.46565273 84.9534689,7.27318868 84.4368471,7.08072175 C83.9202253,6.88825481 83.4770515,6.57929937 83.1073124,6.15384615 C82.7375733,5.72839293 82.5527066,5.16113048 82.5527066,4.45204179 C82.5527066,3.83412163 82.7198464,3.27445645 83.0541311,2.77302944 C83.3884157,2.27160243 83.8923676,1.87401223 84.5660019,1.58024691 C85.2396362,1.2864816 86.0626732,1.13960114 87.0351377,1.13960114 C87.7138369,1.13960114 88.3773314,1.22063863 89.025641,1.38271605 C89.6739507,1.54479347 90.2412131,1.77777626 90.7274454,2.08167142 L89.9677113,3.95061728 C88.985117,3.39347616 88.0025374,3.11490978 87.019943,3.11490978 C86.331114,3.11490978 85.8220972,3.22633633 85.4928775,3.44919278 C85.1636577,3.67204923 84.9990503,3.96581014 84.9990503,4.33048433 C84.9990503,4.69515852 85.188982,4.96612764 85.5688509,5.14339981 C85.9487198,5.32067198 86.5286444,5.49540908 87.308642,5.66761633 C88.1190291,5.86008327 88.7825235,6.05254731 89.2991453,6.24501425 C89.8157671,6.43748118 90.2589409,6.74137178 90.62868,7.15669516 C90.9984191,7.57201854 91.1832858,8.13421614 91.1832858,8.84330484 C91.1832858,9.45109516 91.0136136,10.0056955 90.674264,10.5071225 C90.3349144,11.0085495 89.8258977,11.4061397 89.1471985,11.699905 C88.4684993,11.9936704 87.6429298,12.1405508 86.6704653,12.1405508 Z M96.9724596,12.0797721 C96.1114234,12.0797721 95.3390348,11.8999701 94.6552707,11.5403609 C93.9715066,11.1807516 93.4371656,10.6818645 93.0522317,10.0436847 C92.6672979,9.40550488 92.4748338,8.68123229 92.4748338,7.8708452 C92.4748338,7.06045812 92.6672979,6.33618553 93.0522317,5.6980057 C93.4371656,5.05982587 93.9715066,4.5609388 94.6552707,4.20132953 C95.3390348,3.84172027 96.1114234,3.66191833 96.9724596,3.66191833 C97.8334959,3.66191833 98.6033521,3.84172027 99.2820513,4.20132953 C99.9607505,4.5609388 100.492559,5.05982587 100.877493,5.6980057 C101.262427,6.33618553 101.454891,7.06045812 101.454891,7.8708452 C101.454891,8.68123229 101.262427,9.40550488 100.877493,10.0436847 C100.492559,10.6818645 99.9607505,11.1807516 99.2820513,11.5403609 C98.6033521,11.8999701 97.8334959,12.0797721 96.9724596,12.0797721 Z M96.9724596,10.1348528 C97.58025,10.1348528 98.079137,9.92972665 98.4691358,9.51946819 C98.8591346,9.10920972 99.0541311,8.55967423 99.0541311,7.8708452 C99.0541311,7.18201618 98.8591346,6.63248068 98.4691358,6.22222222 C98.079137,5.81196376 97.58025,5.60683761 96.9724596,5.60683761 C96.3646693,5.60683761 95.8632498,5.81196376 95.4681861,6.22222222 C95.0731224,6.63248068 94.8755935,7.18201618 94.8755935,7.8708452 C94.8755935,8.55967423 95.0731224,9.10920972 95.4681861,9.51946819 C95.8632498,9.92972665 96.3646693,10.1348528 96.9724596,10.1348528 Z M106.013295,3.96581197 L108.110161,3.96581197 L108.110161,5.78917379 L106.074074,5.78917379 L106.074074,11.9582146 L103.703704,11.9582146 L103.703704,5.78917379 L102.442545,5.78917379 L102.442545,3.96581197 L103.703704,3.96581197 L103.703704,3.6011396 C103.703704,2.66919445 103.979738,1.92972733 104.531814,1.38271605 C105.08389,0.835704767 105.861344,0.562203229 106.864198,0.562203229 C107.218742,0.562203229 107.555554,0.600189554 107.874644,0.676163343 C108.193734,0.752137132 108.459638,0.861031263 108.672365,1.002849 L108.049383,2.71984805 C107.775877,2.52738112 107.456792,2.4311491 107.092118,2.4311491 C106.372899,2.4311491 106.013295,2.82620688 106.013295,3.61633428 L106.013295,3.96581197 Z M114.947768,11.5631529 C114.714782,11.7353602 114.428618,11.8645137 114.089269,11.9506173 C113.749919,12.0367209 113.392848,12.0797721 113.018044,12.0797721 C112.045579,12.0797721 111.29345,11.8315948 110.761633,11.3352327 C110.229817,10.8388706 109.963913,10.1095331 109.963913,9.14719848 L109.963913,5.78917379 L108.702754,5.78917379 L108.702754,3.96581197 L109.963913,3.96581197 L109.963913,1.97530864 L112.334283,1.97530864 L112.334283,3.96581197 L114.37037,3.96581197 L114.37037,5.78917379 L112.334283,5.78917379 L112.334283,9.11680912 C112.334283,9.46122363 112.422918,9.7271279 112.60019,9.91452991 C112.777462,10.1019319 113.028172,10.1956315 113.352327,10.1956315 C113.727131,10.1956315 114.046216,10.0943347 114.309592,9.89173789 L114.947768,11.5631529 Z M129.641026,3.78347578 L126.678063,11.9582146 L124.39886,11.9582146 L122.560304,6.88319088 L120.660969,11.9582146 L118.381766,11.9582146 L115.433998,3.78347578 L117.667616,3.78347578 L119.597341,9.31433998 L121.603039,3.78347578 L123.608737,3.78347578 L125.553656,9.31433998 L127.54416,3.78347578 L129.641026,3.78347578 Z M134.153846,3.66191833 C135.420076,3.66191833 136.392526,3.96327651 137.071225,4.5660019 C137.749924,5.16872729 138.089269,6.07786667 138.089269,7.29344729 L138.089269,11.9582146 L135.870845,11.9582146 L135.870845,10.9401709 C135.425132,11.6999088 134.594498,12.0797721 133.378917,12.0797721 C132.750867,12.0797721 132.206397,11.9734104 131.745489,11.7606838 C131.284581,11.5479572 130.932575,11.2541962 130.689459,10.8793922 C130.446343,10.5045882 130.324786,10.0791413 130.324786,9.60303894 C130.324786,8.84330104 130.61095,8.24564953 131.183286,7.81006648 C131.755622,7.37448342 132.639437,7.15669516 133.834758,7.15669516 L135.718898,7.15669516 C135.718898,6.64007339 135.561888,6.24248319 135.247863,5.96391263 C134.933838,5.68534207 134.462808,5.54605888 133.834758,5.54605888 C133.399175,5.54605888 132.971196,5.61443426 132.550807,5.75118708 C132.130419,5.88793991 131.773347,6.07280669 131.479582,6.30579297 L130.62868,4.64957265 C131.074393,4.33554765 131.608734,4.09243518 132.231719,3.92022792 C132.854704,3.74802066 133.495407,3.66191833 134.153846,3.66191833 Z M133.97151,10.4843305 C134.376704,10.4843305 134.736307,10.3906309 135.050332,10.2032289 C135.364357,10.0158269 135.58721,9.7397929 135.718898,9.37511871 L135.718898,8.53941121 L134.093067,8.53941121 C133.120603,8.53941121 132.634378,8.85849633 132.634378,9.49667616 C132.634378,9.80057132 132.753402,10.0411514 132.991453,10.2184236 C133.229504,10.3956957 133.556187,10.4843305 133.97151,10.4843305 Z M142.875594,4.8622982 C143.159229,4.46723449 143.541625,4.16840874 144.022792,3.96581197 C144.503959,3.76321519 145.05856,3.66191833 145.68661,3.66191833 L145.68661,5.84995252 C145.423234,5.82969284 145.245964,5.81956315 145.154796,5.81956315 C144.476097,5.81956315 143.944288,6.00949478 143.559354,6.38936372 C143.17442,6.76923267 142.981956,7.33902754 142.981956,8.09876543 L142.981956,11.9582146 L140.611586,11.9582146 L140.611586,3.78347578 L142.875594,3.78347578 L142.875594,4.8622982 Z M155.547958,7.90123457 C155.547958,7.93162408 155.532764,8.1443475 155.502374,8.53941121 L149.318139,8.53941121 C149.429567,9.04590313 149.692939,9.44602575 150.108262,9.73979107 C150.523585,10.0335564 151.0402,10.1804368 151.65812,10.1804368 C152.083573,10.1804368 152.460904,10.1171263 152.790123,9.99050332 C153.119343,9.86388034 153.425766,9.66381903 153.709402,9.39031339 L154.97056,10.7578348 C154.200693,11.6391307 153.076297,12.0797721 151.597341,12.0797721 C150.675526,12.0797721 149.860086,11.8999701 149.150997,11.5403609 C148.441908,11.1807516 147.894905,10.6818645 147.509972,10.0436847 C147.125038,9.40550488 146.932574,8.68123229 146.932574,7.8708452 C146.932574,7.07058796 147.122505,6.34884779 147.502374,5.70560304 C147.882243,5.06235829 148.403922,4.5609388 149.067426,4.20132953 C149.730931,3.84172027 150.47293,3.66191833 151.293447,3.66191833 C152.093705,3.66191833 152.817977,3.834123 153.466287,4.17853751 C154.114596,4.52295202 154.623613,5.01677425 154.993352,5.66001899 C155.363091,6.30326374 155.547958,7.05032813 155.547958,7.90123457 Z M151.308642,5.45489079 C150.771761,5.45489079 150.320989,5.60683609 149.956315,5.91073124 C149.591641,6.2146264 149.368788,6.62994355 149.287749,7.15669516 L153.31434,7.15669516 C153.233301,6.64007339 153.010448,6.22728866 152.645774,5.91832858 C152.2811,5.60936851 151.835394,5.45489079 151.308642,5.45489079 Z" id="Software" fill="#3FAA58"></path>
                                    </g>
                                </g>
                            </g>
                        </g>
                        <g id="BTS_Software" transform="translate(3.304843, 3.418803)">
                            <circle id="Oval-2" fill="#171F5E" cx="21.2173826" cy="21.1757798" r="21.1757798"></circle>
                            <path d="M21.2082299,41.496208 C32.4258376,41.496208 41.5195055,32.4025402 41.5195055,21.1849325 C41.5195055,9.96732475 32.4258376,0.873656929 21.2082299,0.873656929 C9.99062218,0.873656929 0.896954347,9.96732475 0.896954347,21.1849325 C0.896954347,32.4025402 9.99062218,41.496208 21.2082299,41.496208 Z M21.2082299,42.3698649 C9.50811477,42.3698649 0.0232974165,32.8850476 0.0232974165,21.1849325 C0.0232974165,9.48481734 9.50811477,0 21.2082299,0 C32.9083451,0 42.3931624,9.48481734 42.3931624,21.1849325 C42.3931624,32.8850476 32.9083451,42.3698649 21.2082299,42.3698649 Z" id="Oval" fill="#86E29E"></path>
                            <circle id="Mask" fill="#5AC775" cx="21.1965812" cy="21.1965812" r="14.7897637"></circle>
                            <g id="Group-2" transform="translate(5.404736, 9.402213)" fill="#171F5E">
                                <path d="M24.0915856,0.540835242 C24.0915856,0.540835242 23.4909465,3.94307569 8.18114886,8.47777117 C8.18114886,8.47777117 4.16388705,9.85984248 7.28409041,12.0231834 C7.28409041,12.0231834 25.0068455,19.7612877 26.6709537,20.9261636 C26.6709537,20.9261636 22.0530529,26.7921458 15.1054001,25.6688726 C15.1054001,25.6688726 10.2378829,19.719685 1.91734071,15.684222 C1.91734071,15.684222 -3.65742263,10.5254859 4.20548981,7.69650151 C12.0684022,4.86751717 17.3519466,5.24194157 23.7171612,0" id="Path"></path>
                            </g>
                            <path d="M21.1965812,35.112688 C28.8822348,35.112688 35.112688,28.8822348 35.112688,21.1965812 C35.112688,13.5109276 28.8822348,7.28047441 21.1965812,7.28047441 C13.5109276,7.28047441 7.28047441,13.5109276 7.28047441,21.1965812 C7.28047441,28.8822348 13.5109276,35.112688 21.1965812,35.112688 Z M21.1965812,35.9863449 C13.0284202,35.9863449 6.40681748,29.3647422 6.40681748,21.1965812 C6.40681748,13.0284202 13.0284202,6.40681748 21.1965812,6.40681748 C29.3647422,6.40681748 35.9863449,13.0284202 35.9863449,21.1965812 C35.9863449,29.3647422 29.3647422,35.9863449 21.1965812,35.9863449 Z" id="Mask" fill="#3FAA58"></path>
                        </g>
                    </g>
                </g>
            </g>
        </g>
    </g>
</svg>