<?xml version="1.0" encoding="UTF-8"?>
<svg width="20px" height="20px" viewBox="0 0 20 20" version="1.1" xmlns="http://www.w3.org/2000/svg" xmlns:xlink="http://www.w3.org/1999/xlink">
    <!-- Generator: Sketch 57.1 (83088) - https://sketch.com -->
    <title>Twitter</title>
    <desc>Created with Sketch.</desc>
    <g id="Talent-Request-2" stroke="none" stroke-width="1" fill="none" fill-rule="evenodd">
        <g id="2---Position-Request-17-Copy" transform="translate(-710.000000, -880.000000)" fill-rule="nonzero">
            <g id="Footer" transform="translate(0.000000, 840.000000)">
                <g id="Content" transform="translate(141.000000, 26.000000)">
                    <g id="Social-Media" transform="translate(539.000000, 14.000000)">
                        <g id="Twitter" transform="translate(30.000000, 0.000000)">
                            <circle id="Oval" fill="#FFFFFF" opacity="0.5" cx="10" cy="10" r="10"></circle>
                            <path d="M17,7.06546173 C16.5586156,7.24608868 16.0838153,7.36825755 15.5858808,7.42281841 C16.0942807,7.14171138 16.4844395,6.69692177 16.6685945,6.16605479 C16.1928762,6.42648969 15.6657486,6.61541937 15.1052052,6.71725501 C14.6561094,6.27585428 14.016249,6 13.3077206,6 C11.9483154,6 10.8457725,7.01750918 10.8457725,8.27207004 C10.8457725,8.45015532 10.8676214,8.62349619 10.9098504,8.78988986 C8.86376572,8.69517086 7.04957312,7.7906806 5.83521528,6.4156453 C5.62333609,6.75114374 5.50179014,7.14171138 5.50179014,7.55803445 C5.50179014,8.34611692 5.93674837,9.04185258 6.59698889,9.44919514 C6.19361058,9.43750353 5.81373359,9.335329 5.48196089,9.16469924 C5.48177729,9.17435753 5.48177729,9.18401581 5.48177729,9.19350466 C5.48177729,10.2943801 6.33076288,11.2125953 7.45680712,11.4211805 C7.25043606,11.4733691 7.03249793,11.5009884 6.80831727,11.5009884 C6.64931607,11.5009884 6.49527219,11.4869246 6.345084,11.4604914 C6.65831268,12.3629483 7.56733682,13.0198814 8.64490957,13.0383507 C7.80216653,13.6478396 6.74075094,14.0109574 5.58698247,14.0109574 C5.38868998,14.0109574 5.19223354,14.0002824 5,13.9791019 C6.08895621,14.6240045 7.38336546,15 8.77361608,15 C13.3020288,15 15.7784816,11.5379271 15.7784816,8.53521604 C15.7784816,8.43676927 15.7760947,8.3386614 15.771321,8.24140073 C16.2527311,7.92115222 16.6700633,7.52109574 17,7.06546173 L17,7.06546173 Z" id="Shape" fill="#132D6C"></path>
                        </g>
                    </g>
                </g>
            </g>
        </g>
    </g>
</svg>