<?xml version="1.0" encoding="UTF-8" standalone="no"?>
<!DOCTYPE svg PUBLIC "-//W3C//DTD SVG 1.1//EN" "http://www.w3.org/Graphics/SVG/1.1/DTD/svg11.dtd">
<svg version="1.1" xmlns="http://www.w3.org/2000/svg" xmlns:xlink="http://www.w3.org/1999/xlink" preserveAspectRatio="xMidYMid meet" viewBox="0 0 640 640" width="640" height="640"><defs><path d="" id="bH1nXKFHL"></path><path d="M222.63 165.55L320.44 146.58L369.64 178.85L455.69 146.58L505.89 214.23L548.91 214.23L595.52 239.8L627.79 333.03L627.79 429.84L577.6 515.89L477.2 577.44L337.37 577.44L222.63 526.65L168.85 544.57L125.82 497.96L79.21 466.88L43.35 429.84L14.67 333.03C15.86 266.89 20.64 227.29 29.01 214.23C37.38 201.16 54.11 175.03 79.21 135.82L150.92 78.46L204.7 96.38L222.63 165.55Z" id="d2fnbePPAs"></path><path d="M115.06 365.3L179.6 214.23L229.8 165.55" id="cgKPjq4Ga"></path><path d="M297.92 397.57L366.05 182.44" id="a1094Ia0a"></path><path d="M437.76 444.18L502.3 225.46" id="b3aHJPfQit"></path><path d="M73.83 192.3L127.61 195.88" id="ak4iCE1l"></path><path d="M52.32 256.84L109.68 271.18L55.9 267.59" id="bjpLAOWC9"></path><path d="M163.47 350.06L213.66 375.16" id="b2Vikd4Fob"></path><path d="M210.08 228.15L263.86 228.15L317.64 220.98" id="bZE796ypa"></path><path d="M349.91 299.86L418.04 313.49" id="d2gXRPvkeV"></path><path d="M504.09 314.2L557.88 314.2L611.66 317.79" id="bz8tjBDdQ"></path><path d="M500.51 385.91L554.29 396.67" id="fzcZQ61cF"></path><path d="" id="jRdYaRI92"></path><path d="M263.86 466.88L297.92 397.57" id="aZi6MdwJN"></path></defs><g><g><g><g><use xlink:href="#bH1nXKFHL" opacity="1" fill-opacity="0" stroke="#000000" stroke-width="1" stroke-opacity="1"></use></g></g><g><use xlink:href="#d2fnbePPAs" opacity="1" fill="#e4c694" fill-opacity="1"></use><g><use xlink:href="#d2fnbePPAs" opacity="1" fill-opacity="0" stroke="#000000" stroke-width="1" stroke-opacity="1"></use></g></g><g><g><use xlink:href="#cgKPjq4Ga" opacity="1" fill-opacity="0" stroke="#000000" stroke-width="1" stroke-opacity="1"></use></g></g><g><g><use xlink:href="#a1094Ia0a" opacity="1" fill-opacity="0" stroke="#000000" stroke-width="1" stroke-opacity="1"></use></g></g><g><g><use xlink:href="#b3aHJPfQit" opacity="1" fill-opacity="0" stroke="#000000" stroke-width="1" stroke-opacity="1"></use></g></g><g><g><use xlink:href="#ak4iCE1l" opacity="1" fill-opacity="0" stroke="#000000" stroke-width="1" stroke-opacity="1"></use></g></g><g><g><use xlink:href="#bjpLAOWC9" opacity="1" fill-opacity="0" stroke="#000000" stroke-width="1" stroke-opacity="1"></use></g></g><g><g><use xlink:href="#b2Vikd4Fob" opacity="1" fill-opacity="0" stroke="#000000" stroke-width="1" stroke-opacity="1"></use></g></g><g><g><use xlink:href="#bZE796ypa" opacity="1" fill-opacity="0" stroke="#000000" stroke-width="1" stroke-opacity="1"></use></g></g><g><g><use xlink:href="#d2gXRPvkeV" opacity="1" fill-opacity="0" stroke="#000000" stroke-width="1" stroke-opacity="1"></use></g></g><g><g><use xlink:href="#bz8tjBDdQ" opacity="1" fill-opacity="0" stroke="#000000" stroke-width="1" stroke-opacity="1"></use></g></g><g><g><use xlink:href="#fzcZQ61cF" opacity="1" fill-opacity="0" stroke="#000000" stroke-width="1" stroke-opacity="1"></use></g></g><g><g><use xlink:href="#jRdYaRI92" opacity="1" fill-opacity="0" stroke="#000000" stroke-width="1" stroke-opacity="1"></use></g></g><g><g><use xlink:href="#aZi6MdwJN" opacity="1" fill-opacity="0" stroke="#000000" stroke-width="1" stroke-opacity="1"></use></g></g></g></g></svg>