<?xml version="1.0" encoding="UTF-8" standalone="no"?>
<!DOCTYPE svg PUBLIC "-//W3C//DTD SVG 1.1//EN" "http://www.w3.org/Graphics/SVG/1.1/DTD/svg11.dtd">
<svg version="1.1" xmlns="http://www.w3.org/2000/svg" xmlns:xlink="http://www.w3.org/1999/xlink" preserveAspectRatio="xMidYMid meet" viewBox="0 0 640 640" width="640" height="640"><defs><path d="M537.5 417.78L515.3 405.44L523.34 341.63L592.42 358.59L619.3 379.22L627.48 421.28L609.95 465.69L583.07 477.38L545.68 465.69L537.5 417.78Z" id="dJRXRFb6Q"></path><path d="M354.03 321.14C359.48 321.8 363.36 326.75 362.7 332.19C362.46 334.17 362.94 330.22 362.7 332.19C362.04 337.64 357.08 341.52 351.64 340.86C289.81 333.35 114.18 312.01 52.34 304.5C46.9 303.84 43.02 298.89 43.68 293.44C43.92 291.47 43.44 295.41 43.68 293.44C44.34 287.99 49.29 284.12 54.74 284.78C116.57 292.29 292.2 313.62 354.03 321.14Z" id="a2BOSemIc"></path><path d="M340.93 346.62C349.9 347.71 356.29 355.86 355.2 364.83C354.81 368.08 355.59 361.58 355.2 364.83C354.11 373.8 345.96 380.19 336.99 379.1C276.43 371.74 111.01 351.65 50.45 344.29C41.48 343.2 35.1 335.05 36.19 326.08C36.58 322.83 35.79 329.33 36.19 326.08C37.27 317.11 45.43 310.72 54.4 311.81C114.95 319.17 280.38 339.26 340.93 346.62Z" id="b1jQwodMiB"></path><path d="M356.34 316.71L523.34 336.99L515.02 405.44L348.02 385.15L356.34 316.71Z" id="adBCpC8mU"></path><path d="M295.13 348.12C305.71 349.4 313.23 359.01 311.95 369.58C311.49 373.41 312.42 365.76 311.95 369.58C310.67 380.16 301.06 387.68 290.48 386.4C258.12 382.47 180.16 373 147.8 369.07C137.23 367.78 129.7 358.17 130.98 347.6C131.45 343.77 130.52 351.43 130.98 347.6C132.27 337.03 141.88 329.5 152.45 330.78C184.81 334.72 262.77 344.19 295.13 348.12Z" id="a2T9f9yoWI"></path><path d="M490.76 400.25L510.62 405.44L485.08 432.97L469.72 432.97L449.86 421.28L420.64 393.24L490.76 400.25Z" id="b4ezQV7NHB"></path><path d="M498.94 402.59L474.4 417.78L456.87 396.74L498.94 402.59Z" id="abdMhpIT4"></path><path d="" id="k2kTUzALMJ"></path></defs><g><g><g><use xlink:href="#dJRXRFb6Q" opacity="1" fill="#151515" fill-opacity="1"></use><g><use xlink:href="#dJRXRFb6Q" opacity="1" fill-opacity="0" stroke="#000000" stroke-width="1" stroke-opacity="1"></use></g></g><g><use xlink:href="#a2BOSemIc" opacity="1" fill="#141414" fill-opacity="1"></use><g><use xlink:href="#a2BOSemIc" opacity="1" fill-opacity="0" stroke="#000000" stroke-width="1" stroke-opacity="1"></use></g></g><g><use xlink:href="#b1jQwodMiB" opacity="1" fill="#141414" fill-opacity="1"></use><g><use xlink:href="#b1jQwodMiB" opacity="1" fill-opacity="0" stroke="#000000" stroke-width="1" stroke-opacity="1"></use></g></g><g><use xlink:href="#adBCpC8mU" opacity="1" fill="#111111" fill-opacity="1"></use><g><use xlink:href="#adBCpC8mU" opacity="1" fill-opacity="0" stroke="#000000" stroke-width="1" stroke-opacity="1"></use></g></g><g><use xlink:href="#a2T9f9yoWI" opacity="1" fill="#503207" fill-opacity="1"></use></g><g><use xlink:href="#b4ezQV7NHB" opacity="1" fill="#1d1d1d" fill-opacity="1"></use><g><use xlink:href="#b4ezQV7NHB" opacity="1" fill-opacity="0" stroke="#000000" stroke-width="1" stroke-opacity="1"></use></g></g><g><use xlink:href="#abdMhpIT4" opacity="1" fill="#f8f8f8" fill-opacity="0.57"></use><g><use xlink:href="#abdMhpIT4" opacity="1" fill-opacity="0" stroke="#000000" stroke-width="1" stroke-opacity="1"></use></g></g><g><g><use xlink:href="#k2kTUzALMJ" opacity="1" fill-opacity="0" stroke="#000000" stroke-width="1" stroke-opacity="1"></use></g></g></g></g></svg>