<?xml version="1.0" encoding="UTF-8" standalone="no"?>
<!DOCTYPE svg PUBLIC "-//W3C//DTD SVG 1.1//EN" "http://www.w3.org/Graphics/SVG/1.1/DTD/svg11.dtd">
<svg version="1.1" xmlns="http://www.w3.org/2000/svg" xmlns:xlink="http://www.w3.org/1999/xlink" preserveAspectRatio="xMidYMid meet" viewBox="0 0 640 640" width="640" height="640"><defs><path d="M35.6 342.29L102.07 329.56L172.79 311.17L220.88 287.13C255.53 267.33 279.1 256.01 291.59 253.18C304.09 250.35 329.07 244.7 366.56 236.21L413.23 236.21C433.03 242.57 447.17 250.12 455.66 258.84C464.15 267.56 481.12 285.01 506.58 311.17L592.85 390.37L607 445.53C617.37 456.85 622.55 462.51 622.55 462.51C622.55 462.51 622.55 462.51 622.55 462.51L622.55 493.62L601.34 502.11L541.93 517.67L464.15 523.32L373.63 523.32L284.52 510.59L152.99 469.58L117.63 473.82L42.67 438.46L35.6 342.29Z" id="b5IfaFsuh"></path></defs><g><g><g><use xlink:href="#b5IfaFsuh" opacity="1" fill="#141415" fill-opacity="1"></use><g><use xlink:href="#b5IfaFsuh" opacity="1" fill-opacity="0" stroke="#000000" stroke-width="1" stroke-opacity="1"></use></g></g></g></g></svg>