<?xml version="1.0" encoding="UTF-8"?>
<svg width="20px" height="20px" viewBox="0 0 20 20" version="1.1" xmlns="http://www.w3.org/2000/svg" xmlns:xlink="http://www.w3.org/1999/xlink">
    <!-- Generator: Sketch 57.1 (83088) - https://sketch.com -->
    <title>Instagram</title>
    <desc>Created with Sketch.</desc>
    <g id="Talent-Request-2" stroke="none" stroke-width="1" fill="none" fill-rule="evenodd" opacity="0.5">
        <g id="2---Position-Request-17-Copy" transform="translate(-680.000000, -880.000000)" fill="#FFFFFF" fill-rule="nonzero">
            <g id="Footer" transform="translate(0.000000, 840.000000)">
                <g id="Content" transform="translate(141.000000, 26.000000)">
                    <g id="Social-Media" transform="translate(539.000000, 14.000000)">
                        <g id="Instagram">
                            <path d="M12.9455556,5.30666667 L7.00066667,5.30666667 C6.05177778,5.30666667 5.27977778,6.07866667 5.27977778,7.02755556 L5.27977778,12.9724444 C5.27977778,13.9213333 6.05177778,14.6935556 7.00066667,14.6935556 L12.9455556,14.6935556 C13.8944444,14.6935556 14.6666667,13.9215556 14.6666667,12.9724444 L14.6666667,7.02755556 C14.6666667,6.07866667 13.8946667,5.30666667 12.9455556,5.30666667 Z M9.97311111,13.0902222 C8.26933333,13.0902222 6.88311111,11.704 6.88311111,10 C6.88311111,8.29622222 8.26933333,6.91 9.97311111,6.91 C11.6771111,6.91 13.0633333,8.29622222 13.0633333,10 C13.0633333,11.7037778 11.6768889,13.0902222 9.97311111,13.0902222 Z M13.1626667,7.54888889 C12.7593333,7.54888889 12.4313333,7.22088889 12.4313333,6.81777778 C12.4313333,6.41466667 12.7593333,6.08666667 13.1626667,6.08666667 C13.5657778,6.08666667 13.8937778,6.41466667 13.8937778,6.81777778 C13.8937778,7.22088889 13.5657778,7.54888889 13.1626667,7.54888889 Z" id="Shape"></path>
                            <path d="M9.97311111,8.21577778 C8.98955556,8.21577778 8.18866667,9.01622222 8.18866667,9.99977778 C8.18866667,10.9837778 8.98955556,11.7844444 9.97311111,11.7844444 C10.9571111,11.7844444 11.7573333,10.9837778 11.7573333,9.99977778 C11.7573333,9.01644444 10.9568889,8.21577778 9.97311111,8.21577778 Z" id="Shape"></path>
                            <path d="M9.97311111,0 C4.46533333,0 0,4.46533333 0,9.97311111 C0,15.4808889 4.46533333,19.9462222 9.97311111,19.9462222 C15.4808889,19.9462222 19.9462222,15.4808889 19.9462222,9.97311111 C19.9462222,4.46533333 15.4808889,0 9.97311111,0 Z M15.9722222,12.9724444 C15.9722222,14.6415556 14.6146667,15.9991111 12.9455556,15.9991111 L7.00066667,15.9991111 C5.33177778,15.9991111 3.974,14.6415556 3.974,12.9724444 L3.974,7.02755556 C3.974,5.35866667 5.33177778,4.00088889 7.00066667,4.00088889 L12.9455556,4.00088889 C14.6146667,4.00088889 15.9722222,5.35866667 15.9722222,7.02755556 L15.9722222,12.9724444 Z" id="Shape"></path>
                        </g>
                    </g>
                </g>
            </g>
        </g>
    </g>
</svg>