<svg height="512pt" viewBox="0 -109 512 512" width="512pt" xmlns="http://www.w3.org/2000/svg"><path d="m450.601562 65.5625v162.339844h40.585938c11.496094 0 20.8125-9.316406 20.8125-20.8125v-120.714844c0-11.496094-9.316406-20.8125-20.8125-20.8125zm0 0" fill="#d8d8d8"/><path d="m497.429688 66.515625v122.882813c0 11.496093-9.316407 20.8125-20.8125 20.8125-6.320313 0-11.445313-5.125-11.445313-11.445313v-133.203125h-14.570313v162.339844h40.585938c11.496094 0 20.8125-9.316406 20.8125-20.8125v-120.714844c0-9.320312-6.125-17.203125-14.570312-19.859375zm0 0" fill="#bababa"/><path d="m429.789062 293.464844h-408.976562c-11.496094 0-20.8125-9.320313-20.8125-20.8125v-251.839844c0-11.496094 9.316406-20.8125 20.8125-20.8125h408.976562c11.496094 0 20.8125 9.316406 20.8125 20.8125v251.835938c0 11.496093-9.320312 20.816406-20.8125 20.816406zm0 0" fill="#757575"/><path d="m429.789062 293.464844h-408.976562c-11.496094 0-20.8125-9.320313-20.8125-20.8125v-251.839844c0-11.496094 9.316406-20.8125 20.8125-20.8125h408.976562c11.496094 0 20.8125 9.316406 20.8125 20.8125v251.835938c0 11.496093-9.320312 20.816406-20.8125 20.816406zm0 0" fill="#757575"/><path d="m431.871094.105469v252.773437c0 11.492188-9.320313 20.8125-20.8125 20.8125h-411.0039065c.5429685 11.007813 9.6171875 19.773438 20.7578125 19.773438h408.976562c11.496094 0 20.8125-9.320313 20.8125-20.816406v-251.835938c0-10.792969-8.214843-19.664062-18.730468-20.707031zm0 0" fill="#595959"/><path d="m392.324219 261.203125h-334.046875c-11.496094 0-20.8125-9.316406-20.8125-20.8125v-187.316406c0-11.496094 9.316406-20.8125 20.8125-20.8125h334.046875c11.496093 0 20.8125 9.316406 20.8125 20.8125v187.316406c0 11.496094-9.316407 20.8125-20.8125 20.8125zm0 0" fill="#d8d8d8"/><path d="m392.324219 32.261719h-9.363281v181.070312c0 11.496094-9.320313 20.8125-20.816407 20.8125h-324.679687v6.246094c0 11.496094 9.316406 20.8125 20.8125 20.8125h334.046875c11.496093 0 20.8125-9.316406 20.8125-20.8125v-187.316406c0-11.496094-9.316407-20.8125-20.8125-20.8125zm0 0" fill="#bababa"/><path d="m114.472656 261.203125h-56.195312c-11.496094 0-20.8125-9.316406-20.8125-20.8125v-187.316406c0-11.496094 9.316406-20.8125 20.8125-20.8125h56.195312zm0 0" fill="#ff5f5f"/><path d="m37.464844 240.390625c0 11.496094 9.316406 20.8125 20.8125 20.8125h56.195312v-27.054687h-77.007812zm0 0" fill="#ff3939"/></svg>