<?xml version="1.0" encoding="UTF-8" standalone="no"?>
<!-- Created with Inkscape (http://www.inkscape.org/) -->

<svg
   xmlns:dc="http://purl.org/dc/elements/1.1/"
   xmlns:cc="http://creativecommons.org/ns#"
   xmlns:rdf="http://www.w3.org/1999/02/22-rdf-syntax-ns#"
   xmlns:svg="http://www.w3.org/2000/svg"
   xmlns="http://www.w3.org/2000/svg"
   xmlns:sodipodi="http://sodipodi.sourceforge.net/DTD/sodipodi-0.dtd"
   xmlns:inkscape="http://www.inkscape.org/namespaces/inkscape"
   width="210mm"
   height="297mm"
   viewBox="0 0 210 297"
   version="1.1"
   id="svg8"
   inkscape:version="0.92.4 (5da689c313, 2019-01-14)"
   sodipodi:docname="hand_01c.svg">
  <defs
     id="defs2" />
  <sodipodi:namedview
     id="base"
     pagecolor="#ffffff"
     bordercolor="#666666"
     borderopacity="1.0"
     inkscape:pageopacity="0.0"
     inkscape:pageshadow="2"
     inkscape:zoom="0.98994949"
     inkscape:cx="412.91023"
     inkscape:cy="717.98217"
     inkscape:document-units="mm"
     inkscape:current-layer="layer3"
     showgrid="false"
     inkscape:window-width="1366"
     inkscape:window-height="705"
     inkscape:window-x="-8"
     inkscape:window-y="-8"
     inkscape:window-maximized="1" />
  <metadata
     id="metadata5">
    <rdf:RDF>
      <cc:Work
         rdf:about="">
        <dc:format>image/svg+xml</dc:format>
        <dc:type
           rdf:resource="http://purl.org/dc/dcmitype/StillImage" />
        <dc:title></dc:title>
      </cc:Work>
    </rdf:RDF>
  </metadata>
  <g
     inkscape:label="Capa 1"
     inkscape:groupmode="layer"
     id="layer1"
     style="display:none">
    <path
       style="fill:#000000;stroke:#000000;stroke-width:0.26458332px;stroke-linecap:butt;stroke-linejoin:miter;stroke-opacity:1"
       d="m 160.12612,101.67107 c -21.4022,-4.281098 -34.29459,-2.811203 -65.177116,-20.408768 -10.598989,3.277437 -23.013987,9.760603 -35.685565,16.696699 11.304319,-2.88408 19.845794,-6.036908 32.064603,-3.7888 4.32556,3.273952 4.754818,4.816156 7.991402,6.469799 -7.646156,4.76281 -21.276899,16.55165 -26.737762,26.62239 8.913915,-6.19508 16.158841,-8.48878 24.942689,-10.0999 10.059049,2.99674 16.637649,10.04941 18.747379,17.11618 3.70154,12.39874 -2.37442,19.59426 -28.258384,26.78702 52.869554,11.67956 43.668714,-16.97583 77.264364,-27.33511 14.5766,-4.49472 16.88257,-27.78654 -5.15161,-32.05951 z"
       id="path3719"
       inkscape:connector-curvature="0"
       sodipodi:nodetypes="cccccccccsc" />
    <path
       style="fill:#ff0000;stroke-width:1.01015258"
       d="m 357.57813,306.60107 c -40.69976,12.69292 -78.33344,33.34278 -116.10243,52.78836 -4.90796,3.202 -11.20804,5.0631 -15.20951,9.34391 1.62253,3.02924 6.47289,-0.60081 9.24966,-0.4713 31.24448,-8.03047 63.11937,-17.06006 95.58178,-13.25842 9.04811,-0.19159 17.518,4.01351 23.65325,10.47435 5.44361,5.20611 12.98059,10.88421 17.946,15.11874 -34.44034,23.57324 -65.52654,52.44186 -90.55002,85.90557 -3.1132,4.51141 -6.30996,9.03608 -8.79217,13.92394 1.59035,3.25767 5.77529,-1.9662 8.16408,-2.43857 5.64136,-2.95486 11.49029,-7.28142 16.81352,-9.93185 3.42974,-1.50822 6.71613,-4.76355 10.68355,-5.89124 19.28379,-7.54353 38.67579,-15.13159 59.35237,-17.6974 13.13543,2.81847 25.26706,9.76976 36.11334,17.62848 18.07117,13.52961 31.91491,32.98123 36.20727,55.35504 3.61285,15.1056 0.22439,32.4281 -11.26161,43.60821 -3.89024,4.88083 -8.23873,9.33334 -13.57393,12.44539 -1.69736,1.73302 -4.59877,1.82816 -5.65055,3.78808 -3.63166,1.22095 -6.62775,4.46689 -10.48822,5.61108 -21.21618,10.08584 -43.64626,17.16015 -65.74278,24.96379 -1.408,3.34563 4.99946,2.62149 7.02985,3.65204 25.37959,5.13547 51.25314,9.23347 77.196,8.70974 27.64573,-0.71867 55.89577,-7.07029 78.53301,-23.66286 28.01198,-20.09622 49.30337,-48.458 78.6676,-66.80621 17.30257,-11.86258 37.13379,-18.81396 56.47384,-26.38037 23.23447,-9.65768 37.95557,-35.22102 35.66312,-60.12972 -1.01827,-21.71792 -15.71222,-41.11536 -34.89492,-50.61558 -21.75659,-11.19631 -46.86041,-12.26207 -70.47487,-16.89434 -40.74737,-6.51248 -81.75289,-13.59853 -120.12481,-29.3985 -28.11616,-10.65192 -54.51135,-25.00174 -81.14568,-38.76945 -1.05806,-0.40577 -2.13876,-1.10684 -3.31674,-0.97091 z"
       id="path5843"
       inkscape:connector-curvature="0"
       transform="scale(0.26458333)" />
  </g>
  <g
     inkscape:groupmode="layer"
     id="layer3"
     inkscape:label="Capa 2">
    <path
       style="fill:none;stroke:#000000;stroke-width:0.26458332px;stroke-linecap:butt;stroke-linejoin:miter;stroke-opacity:1"
       d="m 72.581682,127.26239 c 3.460511,-9.89137 16.896733,-20.5162 30.416828,-28.132928 l 2.64583,-5.102677 c 17.83702,0.930227 35.93326,3.156573 54.48178,7.644285 15.74631,2.99024 16.03342,13.79136 15.58202,20.62277 -0.47166,7.13805 -8.05575,11.02943 -16.37774,13.64244 -13.28283,6.36602 -28.02038,25.4146 -37.89158,26.56618 -10.36895,1.20965 -20.48873,0.97687 -32.480516,-1.43677 22.011166,-6.75601 27.574146,-13.04179 28.456896,-19.33431 0.91333,-6.51052 -3.04722,-11.78169 -8.55806,-18.9784 -7.90741,6.90726 -8.929632,12.83093 -12.284225,19.08779 -0.512404,-8.22609 -0.652861,-16.45219 0.951455,-24.67828 -9.169908,1.37005 -17.278728,5.21597 -24.942688,10.0999 z"
       id="path5841"
       inkscape:connector-curvature="0"
       sodipodi:nodetypes="ccccscscscccc" />
    <path
       style="fill:#000000;stroke-width:1.01015258"
       d="m 399.17195,355.67238 c -4.15211,6.38074 -6.2022,14.7637 -11.67868,19.88399 -37.79678,22.15735 -74.86324,47.79325 -101.31043,83.32125 -3.26367,5.86933 -8.8554,11.3981 -9.49583,18.26166 2.50239,2.40601 6.15011,-2.25763 8.82409,-2.88109 25.34005,-15.12553 53.5131,-26.58483 82.43491,-31.04977 -3.89406,29.6957 -5.78805,60.17536 -2.64376,89.95093 3.85092,-2.24693 4.66986,-8.98953 7.3236,-13.03137 8.33257,-18.06128 17.74222,-36.10634 32.32686,-49.93152 2.13999,-1.5527 4.37877,-5.69928 6.7988,-5.49666 11.97445,15.6218 24.70734,31.6824 30.52555,50.78582 4.28281,16.49433 0.32991,34.47552 -12.07646,46.49464 -23.30937,23.20833 -55.5431,33.26106 -85.69921,44.29282 -3.29214,0.15952 -4.01643,4.53951 -0.0454,4.06428 26.43564,4.92152 53.34282,7.11051 80.22606,6.01809 20.39633,-0.3879 42.40454,-0.48394 59.79549,-12.74038 38.98941,-25.95436 70.24813,-62.1739 110.69753,-86.08744 19.44358,-9.30182 42.22739,-14.13021 57.26104,-30.74652 6.6852,-7.40607 13.04465,-16.70427 11.26107,-27.1557 0.016,-14.15249 1.06814,-29.11172 -6.21623,-41.91743 -8.78631,-17.64775 -27.31179,-27.89504 -45.98986,-31.88739 -68.06279,-16.91277 -137.85301,-26.22333 -207.79783,-30.37795 -1.47073,0.12674 -3.27114,-0.87247 -4.52133,0.22974 z"
       id="path5845"
       inkscape:connector-curvature="0"
       transform="scale(0.26458333)" />
    <path
       style="fill:#000000;stroke-width:0.26458332"
       id="path5847"
       d="m 73.781416,126.08245 c -0.0056,0.14722 2.65e-4,0.29457 -0.0077,0.44167 -0.01971,0.0932 -0.0071,0.0489 -0.0368,0.13331 0,0 -0.632192,0.29215 -0.632192,0.29215 v 0 c 0.03444,-0.0748 0.01823,-0.0364 0.0485,-0.11506 0.01365,-0.14407 0.0053,-0.28928 0.0036,-0.43383 0,0 0.624589,-0.31824 0.624589,-0.31824 z"
       inkscape:connector-curvature="0" />
    <path
       style="fill:#000000;stroke-width:0.26458332"
       id="path5849"
       d="m 73.299875,126.05059 c -0.208865,0.11173 -0.327819,0.17585 0.507981,-0.29061 0.01566,-0.009 -0.02995,0.0198 -0.04419,0.0308 -0.03844,0.0295 -0.07254,0.0628 -0.104624,0.0989 -0.05374,0.0611 -0.08716,0.12677 -0.103381,0.20599 -0.0137,0.11134 -0.07665,0.20056 -0.140285,0.28902 -0.06325,0.0871 -0.09391,0.1905 -0.120726,0.29333 -0.01117,0.0729 -0.02973,0.14042 -0.06573,0.20464 0,0 -0.643527,0.27375 -0.643527,0.27375 v 0 c 0.06147,-0.0481 0.06969,-0.101 0.08034,-0.1765 0.02437,-0.10912 0.05265,-0.22021 0.109966,-0.31716 0.05656,-0.0826 0.130927,-0.15728 0.150903,-0.25896 0.01029,-0.0868 0.02745,-0.17116 0.09012,-0.23665 0.0293,-0.0474 0.05918,-0.0773 0.09983,-0.11495 0.209619,-0.19407 0.469365,-0.33295 0.737486,-0.43209 0,0 -0.554156,0.43052 -0.554156,0.43052 z"
       inkscape:connector-curvature="0" />
    <path
       style="fill:#000000;stroke-width:0.26458332"
       id="path5855"
       d="m 97.120955,140.68768 c -0.0047,0.14427 -0.0027,0.28866 -0.0016,0.43298 0,0 -0.620228,0.31602 -0.620228,0.31602 v 0 c 0.0011,-0.14374 0.003,-0.28756 -0.0016,-0.43126 0,0 0.623607,-0.31774 0.623607,-0.31774 z"
       inkscape:connector-curvature="0" />
    <path
       style="fill:#000000;stroke-width:0.26458332"
       id="path5861"
       d="m 96.493988,141.05426 c -0.02793,-0.1819 -0.05439,-0.36378 -0.07209,-0.547 -0.007,-0.082 -0.01053,-0.16427 -0.01344,-0.24654 0,0 0.616765,-0.31665 0.616765,-0.31665 v 0 c 0.0021,0.0814 0.004,0.16278 0.0099,0.24399 0.01402,0.18218 0.0352,0.36412 0.07784,0.54211 0,0 -0.619022,0.32409 -0.619022,0.32409 z"
       inkscape:connector-curvature="0" />
    <path
       style="fill:#000000;stroke-width:0.26458332"
       id="path5863"
       d="m 90.997552,161.38928 c -0.132284,-0.0593 -0.267446,-0.11101 -0.405313,-0.15585 -0.110135,-0.0354 -0.224827,-0.047 -0.339738,-0.0518 -0.104574,-0.003 -0.209195,-0.002 -0.31379,-0.001 -0.109141,7.9e-4 -0.218284,7.9e-4 -0.327425,2.6e-4 0,0 0.563581,-0.40955 0.563581,-0.40955 v 0 c 0.109509,-5.3e-4 0.219017,-0.001 0.328528,-0.001 0.105675,-1.3e-4 0.211495,-0.002 0.317026,0.005 0.11797,0.01 0.234704,0.0293 0.34662,0.0693 0.139317,0.0485 0.275911,0.10353 0.413277,0.15721 0,0 -0.582766,0.38836 -0.582766,0.38836 z"
       inkscape:connector-curvature="0" />
    <path
       style="fill:#000000;stroke-width:0.26458332"
       id="path5865"
       d="m 90.76628,161.17212 c -0.135208,-0.0136 -0.268304,-0.0362 -0.402003,-0.0601 -0.111628,-0.0193 -0.225094,-0.0229 -0.338108,-0.0251 -0.05637,0.004 -0.102463,-7.9e-4 -0.155665,-0.0185 0,0 0.574662,-0.39766 0.574662,-0.39766 v 0 c 0.04904,0.006 0.09776,0.007 0.147153,0.007 0.114879,0.005 0.230058,0.0118 0.342992,0.0347 0.133771,0.0256 0.268111,0.0432 0.40381,0.0553 0,0 -0.572841,0.4039 -0.572841,0.4039 z"
       inkscape:connector-curvature="0" />
    <path
       style="fill:#000000;stroke-width:0.26458332"
       id="path5867"
       d="m 90.721896,161.41807 c -0.119422,-0.009 -0.243372,-0.0161 -0.359574,-0.047 -0.09726,-0.0263 -0.192029,-0.0586 -0.29124,-0.0772 -0.108212,-0.0166 -0.216048,-0.009 -0.320241,-0.0453 -0.07554,-0.0345 -0.154948,-0.0493 -0.236773,-0.0581 0,0 0.569478,-0.40248 0.569478,-0.40248 v 0 c 0.08413,0.013 0.16455,0.0353 0.243994,0.0661 0.104325,0.0235 0.212751,0.0152 0.316986,0.041 0.09826,0.0229 0.19416,0.0541 0.292153,0.0781 0.115822,0.0217 0.234363,0.0367 0.35233,0.0328 0,0 -0.567113,0.41204 -0.567113,0.41204 z"
       inkscape:connector-curvature="0" />
    <path
       style="fill:#000000;stroke-width:0.26458332"
       id="path5869"
       d="m 90.199315,161.31386 c -0.144476,-0.0295 -0.284062,-0.0793 -0.429276,-0.10852 -0.116525,-0.004 -0.218604,-0.0579 -0.328509,-0.0899 -0.04569,-0.0126 -0.0927,-0.0177 -0.139632,-0.0227 0,0 0.571394,-0.40335 0.571394,-0.40335 v 0 c 0.04918,0.008 0.09833,0.0168 0.145759,0.0327 0.106106,0.0357 0.209749,0.0752 0.322221,0.0869 0.143473,0.0343 0.283506,0.0864 0.430884,0.101 0,0 -0.572841,0.4039 -0.572841,0.4039 z"
       inkscape:connector-curvature="0" />
  </g>
</svg>
