<?xml version="1.0" encoding="UTF-8" standalone="no"?>
<!-- Created with Inkscape (http://www.inkscape.org/) -->

<svg
   xmlns:dc="http://purl.org/dc/elements/1.1/"
   xmlns:cc="http://creativecommons.org/ns#"
   xmlns:rdf="http://www.w3.org/1999/02/22-rdf-syntax-ns#"
   xmlns:svg="http://www.w3.org/2000/svg"
   xmlns="http://www.w3.org/2000/svg"
   xmlns:sodipodi="http://sodipodi.sourceforge.net/DTD/sodipodi-0.dtd"
   xmlns:inkscape="http://www.inkscape.org/namespaces/inkscape"
   width="210mm"
   height="297mm"
   viewBox="0 0 210 297"
   version="1.1"
   id="svg8"
   inkscape:version="0.92.4 (5da689c313, 2019-01-14)"
   sodipodi:docname="hand_01b.svg">
  <defs
     id="defs2" />
  <sodipodi:namedview
     id="base"
     pagecolor="#ffffff"
     bordercolor="#666666"
     borderopacity="1.0"
     inkscape:pageopacity="0.0"
     inkscape:pageshadow="2"
     inkscape:zoom="0.98994949"
     inkscape:cx="411.96942"
     inkscape:cy="631.98262"
     inkscape:document-units="mm"
     inkscape:current-layer="layer2"
     showgrid="false"
     inkscape:window-width="1366"
     inkscape:window-height="705"
     inkscape:window-x="-8"
     inkscape:window-y="-8"
     inkscape:window-maximized="1" />
  <metadata
     id="metadata5">
    <rdf:RDF>
      <cc:Work
         rdf:about="">
        <dc:format>image/svg+xml</dc:format>
        <dc:type
           rdf:resource="http://purl.org/dc/dcmitype/StillImage" />
        <dc:title></dc:title>
      </cc:Work>
    </rdf:RDF>
  </metadata>
  <g
     inkscape:groupmode="layer"
     id="layer2"
     inkscape:label="Capa 2">
    <path
       style="fill:none;stroke:#000000;stroke-width:0.26458332px;stroke-linecap:butt;stroke-linejoin:miter;stroke-opacity:1"
       d="m 87.824376,159.17581 c 24.324874,-4.3152 29.993014,-13.28164 28.336824,-23.55468 -2.36366,-14.66124 -11.87399,-20.80402 -46.319845,-11.66604 4.580483,-5.81724 12.373103,-13.03377 19.455519,-15.84869 -2.567699,0.20064 -4.475303,-0.21326 -8.504464,-1.03943 -7.009266,2.93205 -12.958853,7.18871 -18.993304,11.33928 5.124871,-7.87406 8.36449,-15.43927 17.197918,-21.922621 6.347853,2.197706 11.077295,0.719128 23.434516,2.834822 l 14.64659,-1.984374 45.50484,4.714973 c 12.68111,1.57881 23.76093,23.66896 2.59262,31.75973 -21.22704,7.23717 -46.8268,32.18032 -77.351214,25.36703 z"
       id="path4903"
       inkscape:connector-curvature="0"
       sodipodi:nodetypes="cccccccccccc" />
    <path
       style="fill:#000000;stroke-width:0.71428573"
       d="m 297.7379,364.92365 c -21.5298,15.99702 -37.47061,38.05348 -51.00561,60.91632 -3.48528,5.88612 -7.45718,11.55842 -10.50527,17.66627 1.48347,2.86242 4.50329,-1.66271 6.4495,-2.14426 20.23395,-13.31291 40.30406,-27.10148 62.62974,-36.51646 9.66149,2.21981 20.08552,3.67017 29.6317,4.44615 -26.60952,12.67468 -48.74908,32.99421 -67.81111,55.15346 -1.65917,1.14091 -0.86267,3.7856 1.23466,2.8432 35.48429,-8.09642 71.74045,-17.16163 108.3217,-14.09599 18.85105,1.55147 38.77882,8.73082 49.67913,25.07534 10.42213,15.95963 14.52555,35.97215 12.80274,54.70005 -2.64482,21.49388 -19.8697,38.08439 -38.59794,47.29632 -19.7366,10.08585 -41.34607,15.44372 -62.8125,20.34041 -1.90938,2.5971 3.12419,2.74286 4.70424,3.16545 45.33638,7.61627 91.70078,-3.96063 132.95062,-22.67718 48.44041,-21.65866 92.57541,-52.03145 141.5415,-72.3643 14.59563,-5.52615 29.64886,-11.95354 39.7953,-24.35202 8.40894,-9.44726 13.28691,-22.17952 12.13889,-34.89776 0.44166,-20.58427 -11.94022,-39.40428 -27.31358,-52.12197 -8.97485,-6.40457 -19.35125,-11.73486 -30.60799,-11.98399 -56.17891,-6.2246 -112.42475,-11.87684 -168.64564,-17.68118 -19.04416,2.30945 -38.02145,5.88093 -57.11775,6.97126 -21.65022,-3.29231 -43.5337,-4.24415 -65.33399,-5.81956 -7.51283,-0.40656 -14.76772,-2.94407 -22.12834,-3.91956 z"
       id="path5767"
       inkscape:connector-curvature="0"
       transform="scale(0.26458333)" />
    <path
       style="fill:#000000;stroke-width:0.26458332"
       id="path5769"
       d="m 63.185624,117.15143 c -0.106521,0.0785 -0.222975,0.14206 -0.332761,0.21588 -0.09705,0.0554 -0.168233,0.127 -0.206992,0.23174 -0.01056,0.0299 -0.01378,0.0574 -0.0078,0.088 0,0 -0.436058,0.23568 -0.436058,0.23568 v 0 c -0.01095,-0.0392 -0.01439,-0.0738 -0.0019,-0.11386 0.03222,-0.11436 0.09222,-0.20611 0.199763,-0.26366 0.105789,-0.0741 0.217258,-0.1386 0.325263,-0.20902 0,0 0.460447,-0.18478 0.460447,-0.18478 z"
       inkscape:connector-curvature="0" />
    <path
       style="fill:#000000;stroke-width:0.26458332"
       id="path5771"
       d="m 63.017304,117.48707 c -0.07074,0.0671 -0.137403,0.13843 -0.201099,0.21223 -0.05108,0.0693 -0.108183,0.1319 -0.175615,0.18536 -0.0094,0.007 -0.01889,0.0138 -0.02835,0.0206 0,0 -0.459007,0.18311 -0.459007,0.18311 v 0 c 0.0094,-0.008 0.01879,-0.0152 0.02819,-0.0227 0.07209,-0.0449 0.13403,-0.10327 0.181169,-0.17427 0.06262,-0.0743 0.128518,-0.14555 0.196818,-0.2147 0,0 0.457893,-0.18966 0.457893,-0.18966 z"
       inkscape:connector-curvature="0" />
    <path
       style="fill:#000000;stroke-width:0.26458332"
       id="path5773"
       d="m 62.953706,117.52303 c -0.0434,0.10025 -0.08484,0.20132 -0.13376,0.29904 -0.02627,0.0492 -0.01254,0.0256 -0.041,0.0708 0,0 -0.453155,0.19598 -0.453155,0.19598 v 0 c 0.03299,-0.0389 0.01762,-0.0177 0.04542,-0.0642 0.04974,-0.0954 0.09625,-0.19208 0.134144,-0.29305 0,0 0.448347,-0.20854 0.448347,-0.20854 z"
       inkscape:connector-curvature="0" />
    <path
       style="fill:#000000;stroke-width:0.26458332"
       id="path5775"
       d="m 62.429156,117.73963 c 0.201549,-0.28616 -0.06509,-0.0884 0.548288,-0.35964 0.02514,0.0741 0.02225,0.153 0.01177,0.22944 -0.0081,0.0553 -0.0042,0.0278 -0.01167,0.0825 0,0 -0.442235,0.21801 -0.442235,0.21801 v 0 c 0.0072,-0.0553 0.0034,-0.0276 0.0114,-0.0829 0.0097,-0.0657 0.01773,-0.13164 0.0013,-0.1973 0.143986,-0.0802 0.287779,-0.16069 0.431956,-0.24051 0.0054,-0.003 -0.01132,0.005 -0.01556,0.01 -0.03819,0.0403 -0.04945,0.0999 -0.07915,0.1455 0,0 -0.456248,0.19493 -0.456248,0.19493 z"
       inkscape:connector-curvature="0" />
    <path
       style="fill:#000000;stroke-width:0.26458332"
       id="path5777"
       d="m 62.3147,117.91486 c -0.01341,0.003 -0.02694,0.006 -0.04026,0.0101 -0.04399,0.0124 -0.0599,0.0173 -0.101248,0.0375 -0.01622,0.008 -0.06321,0.035 -0.04755,0.026 0.401349,-0.23066 0.492201,-0.29454 0.335766,-0.18726 -0.02516,0.0187 -0.04479,0.0405 -0.05982,0.0676 0,0 -0.448288,0.21315 -0.448288,0.21315 v 0 c 0.0057,-0.041 0.02048,-0.0692 0.05148,-0.0984 0.195648,-0.16755 0.448804,-0.3108 0.706702,-0.3656 0,0 -0.396791,0.29698 -0.396791,0.29698 z"
       inkscape:connector-curvature="0" />
    <path
       style="fill:#000000;stroke-width:0.26458332"
       id="path5779"
       d="m 71.10995,123.10759 c 0.777619,-0.4242 0.414478,-0.28543 0.312534,-0.15128 -0.03643,0.0479 -0.06376,0.10478 -0.09279,0.15729 -0.03655,0.0942 -0.102378,0.16797 -0.165584,0.24451 -0.06936,0.10059 -0.166804,0.16722 -0.26774,0.2325 -0.09381,0.0616 -0.18683,0.1243 -0.279865,0.18703 0,0 -0.456634,0.17819 -0.456634,0.17819 v 0 c 0.09565,-0.0607 0.188164,-0.1264 0.282818,-0.18862 0.09839,-0.0627 0.200385,-0.11919 0.269714,-0.21564 0.0587,-0.0786 0.136374,-0.14313 0.170733,-0.23783 0.179861,-0.33482 0.146306,-0.25918 0.614066,-0.51591 0,0 -0.387255,0.30976 -0.387255,0.30976 z"
       inkscape:connector-curvature="0" />
    <path
       style="fill:#000000;stroke-width:0.26458332"
       id="path5781"
       d="m 70.03765,124.02752 c 0.0028,-0.0791 0.0019,-0.15819 0.0016,-0.23728 0,0 0.438483,-0.22342 0.438483,-0.22342 v 0 c -2.64e-4,0.0785 -0.0013,0.15715 0.0016,0.23567 0,0 -0.441653,0.22503 -0.441653,0.22503 z"
       inkscape:connector-curvature="0" />
    <path
       style="fill:#000000;stroke-width:0.26458332"
       id="path5783"
       d="m 70.304921,123.82707 c 0.0011,-0.0779 0.0069,-0.15628 -0.0044,-0.23358 0,0 0.434475,-0.23083 0.434475,-0.23083 v 0 c 0.01545,0.0791 0.0077,0.15902 0.01159,0.23938 0,0 -0.441651,0.22503 -0.441651,0.22503 z"
       inkscape:connector-curvature="0" />
    <path
       style="fill:#000000;stroke-width:0.26458332"
       id="path5785"
       d="m 70.300431,123.77142 c -0.01172,-0.0427 -0.03332,-0.0803 -0.05619,-0.11763 0,0 0.425243,-0.24693 0.425243,-0.24693 v 0 c 0.02461,0.0404 0.04817,0.0811 0.06559,0.12518 0,0 -0.434644,0.23938 -0.434644,0.23938 z"
       inkscape:connector-curvature="0" />
    <path
       style="fill:#000000;stroke-width:0.26458332"
       id="path5787"
       d="m 70.267022,123.83824 c -0.01545,-0.0735 -0.04052,-0.1434 -0.0688,-0.21277 0,0 0.429529,-0.24008 0.429529,-0.24008 v 0 c 0.02815,0.0701 0.05455,0.14033 0.07391,0.21347 0,0 -0.434644,0.23938 -0.434644,0.23938 z"
       inkscape:connector-curvature="0" />
    <path
       style="fill:#000000;stroke-width:0.26458332"
       id="path5789"
       d="m 70.362248,123.67113 c -0.03411,-0.0538 -0.01582,-0.0252 -0.05501,-0.0856 0,0 0.422603,-0.24799 0.422603,-0.24799 v 0 c 0.04217,0.06 0.0218,0.0313 0.06107,0.0863 0,0 -0.428662,0.24724 -0.428662,0.24724 z"
       inkscape:connector-curvature="0" />
    <path
       style="fill:#000000;stroke-width:0.26458332"
       id="path5791"
       d="m 70.496453,123.74358 c -0.0585,-0.0869 -0.121878,-0.17067 -0.185203,-0.25417 0,0 0.422301,-0.25068 0.422301,-0.25068 v 0 c 0.0633,0.0849 0.12495,0.17102 0.190424,0.25434 0,0 -0.427522,0.25051 -0.427522,0.25051 z"
       inkscape:connector-curvature="0" />
    <path
       style="fill:#000000;stroke-width:0.26458332"
       id="path5795"
       d="m 89.278784,159.44709 c -0.206152,0.005 -0.410017,-0.0262 -0.614606,-0.0467 -0.116223,-0.0248 -0.05935,-0.0124 -0.170629,-0.0371 0,0 0.809963,-0.56264 0.809963,-0.56264 v 0 c 0.106921,0.0223 0.05264,0.0123 0.162872,0.0299 0.204129,0.0233 0.40847,0.0481 0.614421,0.0338 0,0 -0.802021,0.5827 -0.802021,0.5827 z"
       inkscape:connector-curvature="0" />
    <path
       style="fill:#000000;stroke-width:0.26458332"
       id="path5803"
       d="m 88.819499,159.27354 c -0.177495,0.0311 -0.343646,0.10031 -0.518951,0.14028 0,0 0.783934,-0.59937 0.783934,-0.59937 v 0 c 0.173749,-0.0472 0.345165,-0.1027 0.520166,-0.14544 0,0 -0.785149,0.60453 -0.785149,0.60453 z"
       inkscape:connector-curvature="0" />
  </g>
</svg>
