<?xml version="1.0" encoding="UTF-8" standalone="no"?>
<!DOCTYPE svg PUBLIC "-//W3C//DTD SVG 1.1//EN" "http://www.w3.org/Graphics/SVG/1.1/DTD/svg11.dtd">
<svg version="1.1" xmlns="http://www.w3.org/2000/svg" xmlns:xlink="http://www.w3.org/1999/xlink" preserveAspectRatio="xMidYMid meet" viewBox="0 0 640 640" width="210" height="210"><defs><path d="M30.43 599.75L41.06 611.35L45.89 592.98C52.66 583.32 56.53 579.45 57.49 581.38C58.46 583.32 60.39 587.18 63.29 592.98L70.06 607.48L84.56 592.98L98.09 575.58L108.72 569.78L115.48 578.48L118.38 592.98L129.01 592.98L137.71 607.48L148.34 618.12L156.08 612.32L166.71 592.98L181.21 578.48L195.7 571.72L205.37 563.98L216.97 563.98L229.53 563.98L239.2 575.58L253.69 587.18L268.19 596.85L294.29 607.48L297.19 595.88L311.68 567.85L317.48 578.48L326.18 592.98L340.68 601.68L355.18 611.35L376.44 621.98L376.44 600.72L384.17 578.48L395.77 582.35L413.17 596.85L427.67 607.48L442.16 617.15L448.93 607.48L451.83 586.22L456.66 567.85L471.16 571.72L485.66 578.48L500.15 592.98L514.65 568.82L529.15 581.38L558.14 599.75L566.84 578.48L572.64 592.98L587.14 616.18L594.87 592.98L604.54 618.12L616.13 618.12L620 601.68L616.13 592.98L611.3 567.85L601.64 549.48L587.14 531.12L565.88 515.65L564.91 505.98L558.14 491.48L543.65 476.98L529.15 468.28L514.65 462.48L500.15 457.65L485.66 456.68L459.56 447.98L456.66 433.48L442.16 428.65L413.17 433.48L389 447.98L369.67 433.48L348.41 439.28L340.68 433.48L326.18 416.08L311.68 415.11L292.35 433.48L282.69 433.48L268.19 428.65L253.69 433.48L239.2 418.98L224.7 418.98L210.2 418.98L200.54 439.28L188.94 437.35L174.44 433.48L155.11 438.32L146.41 447.98L137.71 455.72L123.22 462.48L106.78 476.98L84.56 479.88L69.09 491.48L65.22 510.82L56.53 520.48L46.86 534.98L36.23 545.62L16.9 578.48L14 592.98L21.73 624.89L30.43 599.75Z" id="g3kbxWtgen"></path><radialGradient id="gradientg118MNvVv" gradientUnits="userSpaceOnUse" cx="526.73" cy="529.18" dx="526.73" dy="738.95" r="209.77"><stop style="stop-color: #7e6a6a;stop-opacity: 1" offset="0%"></stop><stop style="stop-color: #010000;stop-opacity: 1" offset="100%"></stop></radialGradient></defs><g><g><g><use xlink:href="#g3kbxWtgen" opacity="1" fill="url(#gradientg118MNvVv)"></use><g><use xlink:href="#g3kbxWtgen" opacity="1" fill-opacity="0" stroke="#000000" stroke-width="1" stroke-opacity="1"></use></g></g></g></g></svg>